<svg width="38" height="24" viewBox="0 0 38 24" fill="none" xmlns="http://www.w3.org/2000/svg">
<g clip-path="url(#clip0_2_1137)">
<path d="M0 21.8V22.5V21.8ZM17.7 0V24H10.5C9.2 24 8.4 23 8.7 21.7L13.1 2.3C13.4 0.999999 15 0 16.3 0H17.7ZM30.3 0C29 0 27.4 0.999999 27.1 2.3L22.6 21.7C22.3 23 23.1 24 24.4 24H19.5V0H30.3Z" fill="#005B9A"/>
<path d="M16.3 0C15 0 13.4 1.1 13.1 2.3L8.69998 21.7C8.39998 23 9.19998 24 10.5 24H1.59998C0.799976 24 0.0999756 23.4 0.0999756 22.6V1.6C0.0999756 0.8 0.799976 0 1.59998 0H16.3Z" fill="#E9292D"/>
<path d="M30.2999 0C28.9999 0 27.3999 1.1 27.0999 2.3L22.6999 21.7C22.3999 23 23.1999 24 24.4999 24H9.99994H10.4999C9.19994 24 8.39994 23 8.69994 21.7L13.0999 2.3C13.3999 0.999999 14.9999 0 16.2999 0H30.2999Z" fill="#0E73B9"/>
<path d="M38 1.6V22.6C38 23.4 37.4 24 36.5 24H24.4C23.1 24 22.3 22.9 22.6 21.7L27.1 2.3C27.4 0.999999 29 0 30.3 0H36.5C37.4 0 38 0.7 38 1.6Z" fill="#059DA4"/>
<path d="M14.8781 13.645H15.0181C15.1581 13.645 15.2981 13.575 15.2981 13.505L15.7181 12.875H16.9081L16.6981 13.225H18.0981L17.8881 13.855H16.2081C15.9981 14.135 15.7881 14.275 15.5081 14.275H14.6681L14.8781 13.645ZM14.6681 14.555H17.6781L17.4681 15.255H16.2781L16.0681 15.955H17.2581L17.0481 16.655H15.8581L15.5781 17.705C15.5081 17.845 15.5781 17.985 15.8581 17.915H16.8381L16.6281 18.615H14.7381C14.3881 18.615 14.2481 18.405 14.3881 17.985L14.7381 16.655H13.9681L14.1781 15.955H14.9481L15.1581 15.255H14.4581L14.6681 14.555ZM19.4981 12.805V13.225C19.4981 13.225 20.0581 12.805 20.6181 12.805H22.5781L21.8081 15.465C21.7381 15.745 21.4581 15.955 21.0381 15.955H18.7981L18.3081 17.845C18.3081 17.915 18.3081 17.985 18.4481 17.985H18.8681L18.7281 18.545H17.6081C17.1881 18.545 17.0481 18.405 17.1181 18.195L18.5881 12.805H19.4981ZM21.1781 13.575H19.4281L19.2181 14.275C19.2181 14.275 19.4981 14.065 19.9881 14.065H21.0381L21.1781 13.575ZM20.5481 15.255C20.6881 15.255 20.7581 15.255 20.7581 15.115L20.8981 14.765H19.1481L19.0081 15.325L20.5481 15.255ZM19.3581 16.095H20.3381V16.515H20.6181C20.7581 16.515 20.8281 16.445 20.8281 16.375L20.8981 16.095H21.7381L21.5981 16.585C21.5281 16.935 21.2481 17.075 20.8281 17.145H20.2681V17.915C20.2681 18.055 20.3381 18.125 20.6181 18.125H21.1081L20.9681 18.685H19.7781C19.4281 18.685 19.2881 18.545 19.2881 18.195L19.3581 16.095ZM23.5581 13.645L23.7681 12.805H24.9581L24.8881 13.085C24.8881 13.085 25.4481 12.805 25.9381 12.805H27.4081L27.1981 13.645H26.9881L25.8681 17.495H26.0781L25.8681 18.265H25.6581L25.5881 18.615H24.3981L24.4681 18.265H22.2981L22.5081 17.495H22.7181L23.8381 13.645H23.5581ZM24.8181 13.645L24.5381 14.695C24.5381 14.695 25.0281 14.485 25.4481 14.415C25.5181 14.065 25.6581 13.645 25.6581 13.645H24.8181ZM24.3281 15.185L24.0481 16.305C24.0481 16.305 24.6081 16.025 25.0281 16.025C25.1681 15.605 25.2381 15.255 25.2381 15.255L24.3281 15.185ZM24.5381 17.495L24.7481 16.725H23.9081L23.6981 17.495H24.5381ZM27.4081 12.805H28.5281L28.5981 13.225C28.5981 13.295 28.6681 13.365 28.8081 13.365H29.0181L28.8081 14.065H28.0381C27.7581 14.065 27.5481 13.995 27.5481 13.715L27.4081 12.805ZM27.0581 14.275H30.6281L30.4181 15.045H29.2281L29.0181 15.745H30.1381L29.9281 16.515H28.6681L28.3881 16.935H29.0181L29.1581 17.775C29.1581 17.845 29.2281 17.915 29.3681 17.915H29.5781L29.3681 18.615H28.6681C28.3181 18.615 28.1081 18.545 28.1081 18.265L27.9681 17.495L27.4081 18.335C27.2681 18.545 27.0581 18.685 26.7781 18.685H25.7281L25.9381 17.985H26.2881C26.4281 17.985 26.4981 17.915 26.6381 17.775L27.4781 16.515H26.4281L26.6381 15.745H27.8281L28.0381 15.045H26.8481L27.0581 14.275ZM7.31805 9.235C7.17805 9.935 6.89805 10.425 6.40805 10.775C5.91805 11.125 5.28805 11.335 4.51805 11.335C3.81805 11.335 3.25805 11.125 2.97805 10.775C2.76805 10.495 2.62805 10.215 2.62805 9.795C2.62805 9.655 2.62806 9.445 2.69806 9.235L3.53805 5.315H4.72805L3.95805 9.235V9.515C3.95805 9.725 4.02805 9.865 4.09805 10.005C4.23805 10.215 4.44805 10.285 4.79805 10.285C5.14805 10.285 5.49805 10.215 5.70805 10.005C5.91805 9.795 6.12805 9.585 6.19805 9.235L6.96805 5.315H8.15805L7.31805 9.235ZM8.43805 7.695H9.27805L9.20805 8.185L9.34805 8.045C9.62805 7.765 9.97805 7.625 10.3981 7.625C10.7481 7.625 11.0281 7.765 11.1681 7.975C11.3081 8.185 11.3781 8.465 11.3081 8.885L10.8181 11.265H9.90805L10.3281 9.095C10.3981 8.815 10.3981 8.605 10.3281 8.535C10.2581 8.395 10.1181 8.395 9.97805 8.395C9.76805 8.395 9.55805 8.465 9.41805 8.605C9.27805 8.745 9.13805 8.955 9.13805 9.235L8.71805 11.265H7.80805L8.43805 7.695ZM18.2381 7.695H19.0781L19.0081 8.185L19.1481 8.045C19.4281 7.765 19.7781 7.625 20.1981 7.625C20.5481 7.625 20.8281 7.765 20.9681 7.975C21.1081 8.185 21.1781 8.465 21.1081 8.885L20.6181 11.265H19.7081L20.1281 9.025C20.1981 8.815 20.1281 8.605 20.0581 8.535C19.9881 8.395 19.8481 8.395 19.7081 8.395C19.4981 8.395 19.2881 8.465 19.1481 8.605C19.0081 8.745 18.8681 8.955 18.8681 9.235L18.4481 11.265H17.5381L18.2381 7.695ZM12.4281 7.695H13.4081L12.6381 11.195H11.6581L12.4281 7.695ZM12.7781 6.365H13.7581L13.5481 7.205H12.5681L12.7781 6.365ZM14.1781 10.915C13.9681 10.705 13.8281 10.355 13.8281 9.935V9.725C13.8281 9.655 13.8281 9.515 13.8981 9.445C14.0381 8.885 14.2481 8.395 14.5981 8.115C14.9481 7.765 15.4381 7.625 15.9281 7.625C16.3481 7.625 16.6981 7.765 16.9781 7.975C17.1881 8.185 17.3281 8.535 17.3281 8.955V9.165C17.3281 9.235 17.3281 9.375 17.2581 9.445C17.1181 10.005 16.9081 10.425 16.5581 10.775C16.2081 11.125 15.7181 11.265 15.2281 11.265C14.8781 11.265 14.5281 11.125 14.1781 10.915ZM16.0681 10.215C16.2081 10.005 16.3481 9.725 16.4181 9.375V9.025C16.4181 8.815 16.3481 8.675 16.2781 8.535C16.2165 8.46657 16.1408 8.41235 16.0562 8.37609C15.9715 8.33983 15.8801 8.3224 15.7881 8.325C15.5081 8.325 15.2981 8.395 15.1581 8.605C15.0181 8.815 14.8781 9.095 14.8081 9.445V9.725C14.8081 9.935 14.8781 10.075 14.9481 10.215C15.0881 10.355 15.2281 10.425 15.4381 10.425C15.7181 10.495 15.8581 10.425 16.0681 10.215ZM22.5781 5.525H25.0981C25.5881 5.525 25.9381 5.665 26.2181 5.875C26.4981 6.085 26.5681 6.435 26.5681 6.785V7.065C26.5681 7.135 26.5681 7.275 26.4981 7.345C26.4281 7.835 26.1481 8.325 25.7981 8.605C25.3781 8.955 24.9581 9.095 24.3981 9.095H22.9981L22.5781 11.125H21.3881L22.5781 5.525ZM23.1381 8.115H24.2581C24.5381 8.115 24.7481 8.045 24.9581 7.905C25.0981 7.765 25.2381 7.555 25.3081 7.275V6.995C25.3081 6.785 25.2381 6.645 25.0981 6.575C24.9581 6.505 24.7481 6.435 24.3981 6.435H23.4881L23.1381 8.115ZM31.8181 11.825C31.4681 12.595 31.1181 13.085 30.9081 13.295C30.6981 13.505 30.2781 13.995 29.2981 13.995L29.3681 13.365C30.2081 13.085 30.6281 11.965 30.9081 11.405L30.6281 7.625H31.8181L31.8881 10.005L32.7981 7.695H33.8481L31.8181 11.825ZM28.8781 7.975L28.4581 8.255C28.0381 7.905 27.6181 7.695 26.9181 8.045C25.9381 8.535 25.0281 12.175 27.8281 10.985L27.9681 11.195H29.0881L29.7881 7.905L28.8781 7.975ZM28.3181 9.795C28.1081 10.355 27.7581 10.635 27.4081 10.565C27.1281 10.425 27.0581 9.935 27.1981 9.375C27.4081 8.815 27.7581 8.535 28.1081 8.605C28.3881 8.745 28.4581 9.235 28.3181 9.795Z" fill="white"/>
</g>
<defs>
<clipPath id="clip0_2_1137">
<rect width="38" height="24" fill="white"/>
</clipPath>
</defs>
</svg>
